%TF.GenerationSoftware,KiCad,Pcbnew,10.0.3*%
%TF.CreationDate,2026-07-01T23:16:50+05:30*%
%TF.ProjectId,USB_C_POWER_BOARD,5553425f-435f-4504-9f57-45525f424f41,rev?*%
%TF.SameCoordinates,Original*%
%TF.FileFunction,Drillmap*%
%TF.FilePolarity,Positive*%
%FSLAX45Y45*%
G04 Gerber Fmt 4.5, Leading zero omitted, Abs format (unit mm)*
G04 Created by KiCad (PCBNEW 10.0.3) date 2026-07-01 23:16:50*
%MOMM*%
%LPD*%
G01*
G04 APERTURE LIST*
%ADD10C,0.050000*%
%ADD11C,0.200000*%
%ADD12C,0.100000*%
G04 APERTURE END LIST*
D10*
X17792000Y-8770000D02*
X17792000Y-8770000D01*
G75*
G02*
X17892000Y-8670000I100000J0D01*
G01*
X19503000Y-8670000D01*
G75*
G02*
X19603000Y-8770000I0J-100000D01*
G01*
X19603000Y-10351000D01*
G75*
G02*
X19503000Y-10451000I-100000J0D01*
G01*
X17892000Y-10451000D01*
G75*
G02*
X17792000Y-10351000I0J100000D01*
G01*
X17792000Y-8770000D01*
D11*
D12*
X18086800Y-9357310D02*
X18116800Y-9387310D01*
X18116800Y-9357310D02*
X18086800Y-9387310D01*
X18187000Y-9626890D02*
X18217000Y-9656890D01*
X18217000Y-9626890D02*
X18187000Y-9656890D01*
X18267300Y-9659930D02*
X18297300Y-9689930D01*
X18297300Y-9659930D02*
X18267300Y-9689930D01*
X18491800Y-8767500D02*
X18521800Y-8797500D01*
X18521800Y-8767500D02*
X18491800Y-8797500D01*
X18527000Y-9545480D02*
X18557000Y-9575480D01*
X18557000Y-9545480D02*
X18527000Y-9575480D01*
X18674200Y-9776510D02*
X18704200Y-9806510D01*
X18704200Y-9776510D02*
X18674200Y-9806510D01*
X19042800Y-10337000D02*
X19072800Y-10367000D01*
X19072800Y-10337000D02*
X19042800Y-10367000D01*
X19066000Y-9607270D02*
X19096000Y-9637270D01*
X19096000Y-9607270D02*
X19066000Y-9637270D01*
X19138400Y-9951860D02*
X19168400Y-9981860D01*
X19168400Y-9951860D02*
X19138400Y-9981860D01*
X19149900Y-9629550D02*
X19179900Y-9659550D01*
X19179900Y-9629550D02*
X19149900Y-9659550D01*
X19215100Y-9370170D02*
X19245100Y-9400170D01*
X19245100Y-9370170D02*
X19215100Y-9400170D01*
X19305800Y-9628210D02*
X19335800Y-9658210D01*
X19335800Y-9628210D02*
X19305800Y-9658210D01*
X19399900Y-9659770D02*
X19429900Y-9689770D01*
X19429900Y-9659770D02*
X19399900Y-9689770D01*
X18142000Y-10199000D02*
G75*
G02*
X18092000Y-10199000I-25000J0D01*
G01*
X18092000Y-10199000D02*
G75*
G02*
X18142000Y-10199000I25000J0D01*
G01*
X18242000Y-10199000D02*
G75*
G02*
X18192000Y-10199000I-25000J0D01*
G01*
X18192000Y-10199000D02*
G75*
G02*
X18242000Y-10199000I25000J0D01*
G01*
X18450000Y-10198000D02*
G75*
G02*
X18400000Y-10198000I-25000J0D01*
G01*
X18400000Y-10198000D02*
G75*
G02*
X18450000Y-10198000I25000J0D01*
G01*
X18550000Y-10198000D02*
G75*
G02*
X18500000Y-10198000I-25000J0D01*
G01*
X18500000Y-10198000D02*
G75*
G02*
X18550000Y-10198000I25000J0D01*
G01*
X18753000Y-10202000D02*
G75*
G02*
X18703000Y-10202000I-25000J0D01*
G01*
X18703000Y-10202000D02*
G75*
G02*
X18753000Y-10202000I25000J0D01*
G01*
X18853000Y-10202000D02*
G75*
G02*
X18803000Y-10202000I-25000J0D01*
G01*
X18803000Y-10202000D02*
G75*
G02*
X18853000Y-10202000I25000J0D01*
G01*
D11*
X18050277Y-10764984D02*
X18050277Y-10564984D01*
X18050277Y-10564984D02*
X18097896Y-10564984D01*
X18097896Y-10564984D02*
X18126467Y-10574508D01*
X18126467Y-10574508D02*
X18145515Y-10593555D01*
X18145515Y-10593555D02*
X18155039Y-10612603D01*
X18155039Y-10612603D02*
X18164563Y-10650698D01*
X18164563Y-10650698D02*
X18164563Y-10679270D01*
X18164563Y-10679270D02*
X18155039Y-10717365D01*
X18155039Y-10717365D02*
X18145515Y-10736412D01*
X18145515Y-10736412D02*
X18126467Y-10755460D01*
X18126467Y-10755460D02*
X18097896Y-10764984D01*
X18097896Y-10764984D02*
X18050277Y-10764984D01*
X18250277Y-10764984D02*
X18250277Y-10631650D01*
X18250277Y-10669746D02*
X18259801Y-10650698D01*
X18259801Y-10650698D02*
X18269324Y-10641174D01*
X18269324Y-10641174D02*
X18288372Y-10631650D01*
X18288372Y-10631650D02*
X18307420Y-10631650D01*
X18374086Y-10764984D02*
X18374086Y-10631650D01*
X18374086Y-10564984D02*
X18364563Y-10574508D01*
X18364563Y-10574508D02*
X18374086Y-10584031D01*
X18374086Y-10584031D02*
X18383610Y-10574508D01*
X18383610Y-10574508D02*
X18374086Y-10564984D01*
X18374086Y-10564984D02*
X18374086Y-10584031D01*
X18497896Y-10764984D02*
X18478848Y-10755460D01*
X18478848Y-10755460D02*
X18469324Y-10736412D01*
X18469324Y-10736412D02*
X18469324Y-10564984D01*
X18602658Y-10764984D02*
X18583610Y-10755460D01*
X18583610Y-10755460D02*
X18574086Y-10736412D01*
X18574086Y-10736412D02*
X18574086Y-10564984D01*
X18831229Y-10764984D02*
X18831229Y-10564984D01*
X18831229Y-10564984D02*
X18897896Y-10707841D01*
X18897896Y-10707841D02*
X18964563Y-10564984D01*
X18964563Y-10564984D02*
X18964563Y-10764984D01*
X19145515Y-10764984D02*
X19145515Y-10660222D01*
X19145515Y-10660222D02*
X19135991Y-10641174D01*
X19135991Y-10641174D02*
X19116944Y-10631650D01*
X19116944Y-10631650D02*
X19078848Y-10631650D01*
X19078848Y-10631650D02*
X19059801Y-10641174D01*
X19145515Y-10755460D02*
X19126467Y-10764984D01*
X19126467Y-10764984D02*
X19078848Y-10764984D01*
X19078848Y-10764984D02*
X19059801Y-10755460D01*
X19059801Y-10755460D02*
X19050277Y-10736412D01*
X19050277Y-10736412D02*
X19050277Y-10717365D01*
X19050277Y-10717365D02*
X19059801Y-10698317D01*
X19059801Y-10698317D02*
X19078848Y-10688793D01*
X19078848Y-10688793D02*
X19126467Y-10688793D01*
X19126467Y-10688793D02*
X19145515Y-10679270D01*
X19240753Y-10631650D02*
X19240753Y-10831650D01*
X19240753Y-10641174D02*
X19259801Y-10631650D01*
X19259801Y-10631650D02*
X19297896Y-10631650D01*
X19297896Y-10631650D02*
X19316944Y-10641174D01*
X19316944Y-10641174D02*
X19326467Y-10650698D01*
X19326467Y-10650698D02*
X19335991Y-10669746D01*
X19335991Y-10669746D02*
X19335991Y-10726889D01*
X19335991Y-10726889D02*
X19326467Y-10745936D01*
X19326467Y-10745936D02*
X19316944Y-10755460D01*
X19316944Y-10755460D02*
X19297896Y-10764984D01*
X19297896Y-10764984D02*
X19259801Y-10764984D01*
X19259801Y-10764984D02*
X19240753Y-10755460D01*
X19421705Y-10745936D02*
X19431229Y-10755460D01*
X19431229Y-10755460D02*
X19421705Y-10764984D01*
X19421705Y-10764984D02*
X19412182Y-10755460D01*
X19412182Y-10755460D02*
X19421705Y-10745936D01*
X19421705Y-10745936D02*
X19421705Y-10764984D01*
X19421705Y-10641174D02*
X19431229Y-10650698D01*
X19431229Y-10650698D02*
X19421705Y-10660222D01*
X19421705Y-10660222D02*
X19412182Y-10650698D01*
X19412182Y-10650698D02*
X19421705Y-10641174D01*
X19421705Y-10641174D02*
X19421705Y-10660222D01*
D12*
X17759500Y-11078500D02*
X17789500Y-11108500D01*
X17789500Y-11078500D02*
X17759500Y-11108500D01*
D11*
X18088372Y-10984984D02*
X18107420Y-10984984D01*
X18107420Y-10984984D02*
X18126467Y-10994508D01*
X18126467Y-10994508D02*
X18135991Y-11004031D01*
X18135991Y-11004031D02*
X18145515Y-11023079D01*
X18145515Y-11023079D02*
X18155039Y-11061174D01*
X18155039Y-11061174D02*
X18155039Y-11108793D01*
X18155039Y-11108793D02*
X18145515Y-11146889D01*
X18145515Y-11146889D02*
X18135991Y-11165936D01*
X18135991Y-11165936D02*
X18126467Y-11175460D01*
X18126467Y-11175460D02*
X18107420Y-11184984D01*
X18107420Y-11184984D02*
X18088372Y-11184984D01*
X18088372Y-11184984D02*
X18069324Y-11175460D01*
X18069324Y-11175460D02*
X18059801Y-11165936D01*
X18059801Y-11165936D02*
X18050277Y-11146889D01*
X18050277Y-11146889D02*
X18040753Y-11108793D01*
X18040753Y-11108793D02*
X18040753Y-11061174D01*
X18040753Y-11061174D02*
X18050277Y-11023079D01*
X18050277Y-11023079D02*
X18059801Y-11004031D01*
X18059801Y-11004031D02*
X18069324Y-10994508D01*
X18069324Y-10994508D02*
X18088372Y-10984984D01*
X18240753Y-11165936D02*
X18250277Y-11175460D01*
X18250277Y-11175460D02*
X18240753Y-11184984D01*
X18240753Y-11184984D02*
X18231229Y-11175460D01*
X18231229Y-11175460D02*
X18240753Y-11165936D01*
X18240753Y-11165936D02*
X18240753Y-11184984D01*
X18316944Y-10984984D02*
X18440753Y-10984984D01*
X18440753Y-10984984D02*
X18374086Y-11061174D01*
X18374086Y-11061174D02*
X18402658Y-11061174D01*
X18402658Y-11061174D02*
X18421705Y-11070698D01*
X18421705Y-11070698D02*
X18431229Y-11080222D01*
X18431229Y-11080222D02*
X18440753Y-11099270D01*
X18440753Y-11099270D02*
X18440753Y-11146889D01*
X18440753Y-11146889D02*
X18431229Y-11165936D01*
X18431229Y-11165936D02*
X18421705Y-11175460D01*
X18421705Y-11175460D02*
X18402658Y-11184984D01*
X18402658Y-11184984D02*
X18345515Y-11184984D01*
X18345515Y-11184984D02*
X18326467Y-11175460D01*
X18326467Y-11175460D02*
X18316944Y-11165936D01*
X18564563Y-10984984D02*
X18583610Y-10984984D01*
X18583610Y-10984984D02*
X18602658Y-10994508D01*
X18602658Y-10994508D02*
X18612182Y-11004031D01*
X18612182Y-11004031D02*
X18621705Y-11023079D01*
X18621705Y-11023079D02*
X18631229Y-11061174D01*
X18631229Y-11061174D02*
X18631229Y-11108793D01*
X18631229Y-11108793D02*
X18621705Y-11146889D01*
X18621705Y-11146889D02*
X18612182Y-11165936D01*
X18612182Y-11165936D02*
X18602658Y-11175460D01*
X18602658Y-11175460D02*
X18583610Y-11184984D01*
X18583610Y-11184984D02*
X18564563Y-11184984D01*
X18564563Y-11184984D02*
X18545515Y-11175460D01*
X18545515Y-11175460D02*
X18535991Y-11165936D01*
X18535991Y-11165936D02*
X18526467Y-11146889D01*
X18526467Y-11146889D02*
X18516944Y-11108793D01*
X18516944Y-11108793D02*
X18516944Y-11061174D01*
X18516944Y-11061174D02*
X18526467Y-11023079D01*
X18526467Y-11023079D02*
X18535991Y-11004031D01*
X18535991Y-11004031D02*
X18545515Y-10994508D01*
X18545515Y-10994508D02*
X18564563Y-10984984D01*
X18755039Y-10984984D02*
X18774086Y-10984984D01*
X18774086Y-10984984D02*
X18793134Y-10994508D01*
X18793134Y-10994508D02*
X18802658Y-11004031D01*
X18802658Y-11004031D02*
X18812182Y-11023079D01*
X18812182Y-11023079D02*
X18821705Y-11061174D01*
X18821705Y-11061174D02*
X18821705Y-11108793D01*
X18821705Y-11108793D02*
X18812182Y-11146889D01*
X18812182Y-11146889D02*
X18802658Y-11165936D01*
X18802658Y-11165936D02*
X18793134Y-11175460D01*
X18793134Y-11175460D02*
X18774086Y-11184984D01*
X18774086Y-11184984D02*
X18755039Y-11184984D01*
X18755039Y-11184984D02*
X18735991Y-11175460D01*
X18735991Y-11175460D02*
X18726467Y-11165936D01*
X18726467Y-11165936D02*
X18716944Y-11146889D01*
X18716944Y-11146889D02*
X18707420Y-11108793D01*
X18707420Y-11108793D02*
X18707420Y-11061174D01*
X18707420Y-11061174D02*
X18716944Y-11023079D01*
X18716944Y-11023079D02*
X18726467Y-11004031D01*
X18726467Y-11004031D02*
X18735991Y-10994508D01*
X18735991Y-10994508D02*
X18755039Y-10984984D01*
X18907420Y-11184984D02*
X18907420Y-11051650D01*
X18907420Y-11070698D02*
X18916944Y-11061174D01*
X18916944Y-11061174D02*
X18935991Y-11051650D01*
X18935991Y-11051650D02*
X18964563Y-11051650D01*
X18964563Y-11051650D02*
X18983610Y-11061174D01*
X18983610Y-11061174D02*
X18993134Y-11080222D01*
X18993134Y-11080222D02*
X18993134Y-11184984D01*
X18993134Y-11080222D02*
X19002658Y-11061174D01*
X19002658Y-11061174D02*
X19021705Y-11051650D01*
X19021705Y-11051650D02*
X19050277Y-11051650D01*
X19050277Y-11051650D02*
X19069325Y-11061174D01*
X19069325Y-11061174D02*
X19078848Y-11080222D01*
X19078848Y-11080222D02*
X19078848Y-11184984D01*
X19174086Y-11184984D02*
X19174086Y-11051650D01*
X19174086Y-11070698D02*
X19183610Y-11061174D01*
X19183610Y-11061174D02*
X19202658Y-11051650D01*
X19202658Y-11051650D02*
X19231229Y-11051650D01*
X19231229Y-11051650D02*
X19250277Y-11061174D01*
X19250277Y-11061174D02*
X19259801Y-11080222D01*
X19259801Y-11080222D02*
X19259801Y-11184984D01*
X19259801Y-11080222D02*
X19269325Y-11061174D01*
X19269325Y-11061174D02*
X19288372Y-11051650D01*
X19288372Y-11051650D02*
X19316944Y-11051650D01*
X19316944Y-11051650D02*
X19335991Y-11061174D01*
X19335991Y-11061174D02*
X19345515Y-11080222D01*
X19345515Y-11080222D02*
X19345515Y-11184984D01*
X19735991Y-10975460D02*
X19564563Y-11232603D01*
X19993134Y-10984984D02*
X20012182Y-10984984D01*
X20012182Y-10984984D02*
X20031229Y-10994508D01*
X20031229Y-10994508D02*
X20040753Y-11004031D01*
X20040753Y-11004031D02*
X20050277Y-11023079D01*
X20050277Y-11023079D02*
X20059801Y-11061174D01*
X20059801Y-11061174D02*
X20059801Y-11108793D01*
X20059801Y-11108793D02*
X20050277Y-11146889D01*
X20050277Y-11146889D02*
X20040753Y-11165936D01*
X20040753Y-11165936D02*
X20031229Y-11175460D01*
X20031229Y-11175460D02*
X20012182Y-11184984D01*
X20012182Y-11184984D02*
X19993134Y-11184984D01*
X19993134Y-11184984D02*
X19974087Y-11175460D01*
X19974087Y-11175460D02*
X19964563Y-11165936D01*
X19964563Y-11165936D02*
X19955039Y-11146889D01*
X19955039Y-11146889D02*
X19945515Y-11108793D01*
X19945515Y-11108793D02*
X19945515Y-11061174D01*
X19945515Y-11061174D02*
X19955039Y-11023079D01*
X19955039Y-11023079D02*
X19964563Y-11004031D01*
X19964563Y-11004031D02*
X19974087Y-10994508D01*
X19974087Y-10994508D02*
X19993134Y-10984984D01*
X20145515Y-11165936D02*
X20155039Y-11175460D01*
X20155039Y-11175460D02*
X20145515Y-11184984D01*
X20145515Y-11184984D02*
X20135991Y-11175460D01*
X20135991Y-11175460D02*
X20145515Y-11165936D01*
X20145515Y-11165936D02*
X20145515Y-11184984D01*
X20278848Y-10984984D02*
X20297896Y-10984984D01*
X20297896Y-10984984D02*
X20316944Y-10994508D01*
X20316944Y-10994508D02*
X20326468Y-11004031D01*
X20326468Y-11004031D02*
X20335991Y-11023079D01*
X20335991Y-11023079D02*
X20345515Y-11061174D01*
X20345515Y-11061174D02*
X20345515Y-11108793D01*
X20345515Y-11108793D02*
X20335991Y-11146889D01*
X20335991Y-11146889D02*
X20326468Y-11165936D01*
X20326468Y-11165936D02*
X20316944Y-11175460D01*
X20316944Y-11175460D02*
X20297896Y-11184984D01*
X20297896Y-11184984D02*
X20278848Y-11184984D01*
X20278848Y-11184984D02*
X20259801Y-11175460D01*
X20259801Y-11175460D02*
X20250277Y-11165936D01*
X20250277Y-11165936D02*
X20240753Y-11146889D01*
X20240753Y-11146889D02*
X20231229Y-11108793D01*
X20231229Y-11108793D02*
X20231229Y-11061174D01*
X20231229Y-11061174D02*
X20240753Y-11023079D01*
X20240753Y-11023079D02*
X20250277Y-11004031D01*
X20250277Y-11004031D02*
X20259801Y-10994508D01*
X20259801Y-10994508D02*
X20278848Y-10984984D01*
X20535991Y-11184984D02*
X20421706Y-11184984D01*
X20478848Y-11184984D02*
X20478848Y-10984984D01*
X20478848Y-10984984D02*
X20459801Y-11013555D01*
X20459801Y-11013555D02*
X20440753Y-11032603D01*
X20440753Y-11032603D02*
X20421706Y-11042127D01*
X20726468Y-11184984D02*
X20612182Y-11184984D01*
X20669325Y-11184984D02*
X20669325Y-10984984D01*
X20669325Y-10984984D02*
X20650277Y-11013555D01*
X20650277Y-11013555D02*
X20631229Y-11032603D01*
X20631229Y-11032603D02*
X20612182Y-11042127D01*
X20840753Y-11070698D02*
X20821706Y-11061174D01*
X20821706Y-11061174D02*
X20812182Y-11051650D01*
X20812182Y-11051650D02*
X20802658Y-11032603D01*
X20802658Y-11032603D02*
X20802658Y-11023079D01*
X20802658Y-11023079D02*
X20812182Y-11004031D01*
X20812182Y-11004031D02*
X20821706Y-10994508D01*
X20821706Y-10994508D02*
X20840753Y-10984984D01*
X20840753Y-10984984D02*
X20878849Y-10984984D01*
X20878849Y-10984984D02*
X20897896Y-10994508D01*
X20897896Y-10994508D02*
X20907420Y-11004031D01*
X20907420Y-11004031D02*
X20916944Y-11023079D01*
X20916944Y-11023079D02*
X20916944Y-11032603D01*
X20916944Y-11032603D02*
X20907420Y-11051650D01*
X20907420Y-11051650D02*
X20897896Y-11061174D01*
X20897896Y-11061174D02*
X20878849Y-11070698D01*
X20878849Y-11070698D02*
X20840753Y-11070698D01*
X20840753Y-11070698D02*
X20821706Y-11080222D01*
X20821706Y-11080222D02*
X20812182Y-11089746D01*
X20812182Y-11089746D02*
X20802658Y-11108793D01*
X20802658Y-11108793D02*
X20802658Y-11146889D01*
X20802658Y-11146889D02*
X20812182Y-11165936D01*
X20812182Y-11165936D02*
X20821706Y-11175460D01*
X20821706Y-11175460D02*
X20840753Y-11184984D01*
X20840753Y-11184984D02*
X20878849Y-11184984D01*
X20878849Y-11184984D02*
X20897896Y-11175460D01*
X20897896Y-11175460D02*
X20907420Y-11165936D01*
X20907420Y-11165936D02*
X20916944Y-11146889D01*
X20916944Y-11146889D02*
X20916944Y-11108793D01*
X20916944Y-11108793D02*
X20907420Y-11089746D01*
X20907420Y-11089746D02*
X20897896Y-11080222D01*
X20897896Y-11080222D02*
X20878849Y-11070698D01*
X20993134Y-10984984D02*
X20993134Y-11023079D01*
X21069325Y-10984984D02*
X21069325Y-11023079D01*
X21364563Y-11261174D02*
X21355039Y-11251650D01*
X21355039Y-11251650D02*
X21335991Y-11223079D01*
X21335991Y-11223079D02*
X21326468Y-11204031D01*
X21326468Y-11204031D02*
X21316944Y-11175460D01*
X21316944Y-11175460D02*
X21307420Y-11127841D01*
X21307420Y-11127841D02*
X21307420Y-11089746D01*
X21307420Y-11089746D02*
X21316944Y-11042127D01*
X21316944Y-11042127D02*
X21326468Y-11013555D01*
X21326468Y-11013555D02*
X21335991Y-10994508D01*
X21335991Y-10994508D02*
X21355039Y-10965936D01*
X21355039Y-10965936D02*
X21364563Y-10956412D01*
X21545515Y-11184984D02*
X21431230Y-11184984D01*
X21488372Y-11184984D02*
X21488372Y-10984984D01*
X21488372Y-10984984D02*
X21469325Y-11013555D01*
X21469325Y-11013555D02*
X21450277Y-11032603D01*
X21450277Y-11032603D02*
X21431230Y-11042127D01*
X21612182Y-10984984D02*
X21735991Y-10984984D01*
X21735991Y-10984984D02*
X21669325Y-11061174D01*
X21669325Y-11061174D02*
X21697896Y-11061174D01*
X21697896Y-11061174D02*
X21716944Y-11070698D01*
X21716944Y-11070698D02*
X21726468Y-11080222D01*
X21726468Y-11080222D02*
X21735991Y-11099270D01*
X21735991Y-11099270D02*
X21735991Y-11146889D01*
X21735991Y-11146889D02*
X21726468Y-11165936D01*
X21726468Y-11165936D02*
X21716944Y-11175460D01*
X21716944Y-11175460D02*
X21697896Y-11184984D01*
X21697896Y-11184984D02*
X21640753Y-11184984D01*
X21640753Y-11184984D02*
X21621706Y-11175460D01*
X21621706Y-11175460D02*
X21612182Y-11165936D01*
X21974087Y-11184984D02*
X21974087Y-10984984D01*
X22059801Y-11184984D02*
X22059801Y-11080222D01*
X22059801Y-11080222D02*
X22050277Y-11061174D01*
X22050277Y-11061174D02*
X22031230Y-11051650D01*
X22031230Y-11051650D02*
X22002658Y-11051650D01*
X22002658Y-11051650D02*
X21983611Y-11061174D01*
X21983611Y-11061174D02*
X21974087Y-11070698D01*
X22183611Y-11184984D02*
X22164563Y-11175460D01*
X22164563Y-11175460D02*
X22155039Y-11165936D01*
X22155039Y-11165936D02*
X22145515Y-11146889D01*
X22145515Y-11146889D02*
X22145515Y-11089746D01*
X22145515Y-11089746D02*
X22155039Y-11070698D01*
X22155039Y-11070698D02*
X22164563Y-11061174D01*
X22164563Y-11061174D02*
X22183611Y-11051650D01*
X22183611Y-11051650D02*
X22212182Y-11051650D01*
X22212182Y-11051650D02*
X22231230Y-11061174D01*
X22231230Y-11061174D02*
X22240753Y-11070698D01*
X22240753Y-11070698D02*
X22250277Y-11089746D01*
X22250277Y-11089746D02*
X22250277Y-11146889D01*
X22250277Y-11146889D02*
X22240753Y-11165936D01*
X22240753Y-11165936D02*
X22231230Y-11175460D01*
X22231230Y-11175460D02*
X22212182Y-11184984D01*
X22212182Y-11184984D02*
X22183611Y-11184984D01*
X22364563Y-11184984D02*
X22345515Y-11175460D01*
X22345515Y-11175460D02*
X22335992Y-11156412D01*
X22335992Y-11156412D02*
X22335992Y-10984984D01*
X22516944Y-11175460D02*
X22497896Y-11184984D01*
X22497896Y-11184984D02*
X22459801Y-11184984D01*
X22459801Y-11184984D02*
X22440753Y-11175460D01*
X22440753Y-11175460D02*
X22431230Y-11156412D01*
X22431230Y-11156412D02*
X22431230Y-11080222D01*
X22431230Y-11080222D02*
X22440753Y-11061174D01*
X22440753Y-11061174D02*
X22459801Y-11051650D01*
X22459801Y-11051650D02*
X22497896Y-11051650D01*
X22497896Y-11051650D02*
X22516944Y-11061174D01*
X22516944Y-11061174D02*
X22526468Y-11080222D01*
X22526468Y-11080222D02*
X22526468Y-11099270D01*
X22526468Y-11099270D02*
X22431230Y-11118317D01*
X22602658Y-11175460D02*
X22621706Y-11184984D01*
X22621706Y-11184984D02*
X22659801Y-11184984D01*
X22659801Y-11184984D02*
X22678849Y-11175460D01*
X22678849Y-11175460D02*
X22688372Y-11156412D01*
X22688372Y-11156412D02*
X22688372Y-11146889D01*
X22688372Y-11146889D02*
X22678849Y-11127841D01*
X22678849Y-11127841D02*
X22659801Y-11118317D01*
X22659801Y-11118317D02*
X22631230Y-11118317D01*
X22631230Y-11118317D02*
X22612182Y-11108793D01*
X22612182Y-11108793D02*
X22602658Y-11089746D01*
X22602658Y-11089746D02*
X22602658Y-11080222D01*
X22602658Y-11080222D02*
X22612182Y-11061174D01*
X22612182Y-11061174D02*
X22631230Y-11051650D01*
X22631230Y-11051650D02*
X22659801Y-11051650D01*
X22659801Y-11051650D02*
X22678849Y-11061174D01*
X22755039Y-11261174D02*
X22764563Y-11251650D01*
X22764563Y-11251650D02*
X22783611Y-11223079D01*
X22783611Y-11223079D02*
X22793134Y-11204031D01*
X22793134Y-11204031D02*
X22802658Y-11175460D01*
X22802658Y-11175460D02*
X22812182Y-11127841D01*
X22812182Y-11127841D02*
X22812182Y-11089746D01*
X22812182Y-11089746D02*
X22802658Y-11042127D01*
X22802658Y-11042127D02*
X22793134Y-11013555D01*
X22793134Y-11013555D02*
X22783611Y-10994508D01*
X22783611Y-10994508D02*
X22764563Y-10965936D01*
X22764563Y-10965936D02*
X22755039Y-10956412D01*
D12*
X17789500Y-11357500D02*
G75*
G02*
X17739500Y-11357500I-25000J0D01*
G01*
X17739500Y-11357500D02*
G75*
G02*
X17789500Y-11357500I25000J0D01*
G01*
D11*
X18088372Y-11248984D02*
X18107420Y-11248984D01*
X18107420Y-11248984D02*
X18126467Y-11258508D01*
X18126467Y-11258508D02*
X18135991Y-11268031D01*
X18135991Y-11268031D02*
X18145515Y-11287079D01*
X18145515Y-11287079D02*
X18155039Y-11325174D01*
X18155039Y-11325174D02*
X18155039Y-11372793D01*
X18155039Y-11372793D02*
X18145515Y-11410888D01*
X18145515Y-11410888D02*
X18135991Y-11429936D01*
X18135991Y-11429936D02*
X18126467Y-11439460D01*
X18126467Y-11439460D02*
X18107420Y-11448984D01*
X18107420Y-11448984D02*
X18088372Y-11448984D01*
X18088372Y-11448984D02*
X18069324Y-11439460D01*
X18069324Y-11439460D02*
X18059801Y-11429936D01*
X18059801Y-11429936D02*
X18050277Y-11410888D01*
X18050277Y-11410888D02*
X18040753Y-11372793D01*
X18040753Y-11372793D02*
X18040753Y-11325174D01*
X18040753Y-11325174D02*
X18050277Y-11287079D01*
X18050277Y-11287079D02*
X18059801Y-11268031D01*
X18059801Y-11268031D02*
X18069324Y-11258508D01*
X18069324Y-11258508D02*
X18088372Y-11248984D01*
X18240753Y-11429936D02*
X18250277Y-11439460D01*
X18250277Y-11439460D02*
X18240753Y-11448984D01*
X18240753Y-11448984D02*
X18231229Y-11439460D01*
X18231229Y-11439460D02*
X18240753Y-11429936D01*
X18240753Y-11429936D02*
X18240753Y-11448984D01*
X18431229Y-11248984D02*
X18335991Y-11248984D01*
X18335991Y-11248984D02*
X18326467Y-11344222D01*
X18326467Y-11344222D02*
X18335991Y-11334698D01*
X18335991Y-11334698D02*
X18355039Y-11325174D01*
X18355039Y-11325174D02*
X18402658Y-11325174D01*
X18402658Y-11325174D02*
X18421705Y-11334698D01*
X18421705Y-11334698D02*
X18431229Y-11344222D01*
X18431229Y-11344222D02*
X18440753Y-11363269D01*
X18440753Y-11363269D02*
X18440753Y-11410888D01*
X18440753Y-11410888D02*
X18431229Y-11429936D01*
X18431229Y-11429936D02*
X18421705Y-11439460D01*
X18421705Y-11439460D02*
X18402658Y-11448984D01*
X18402658Y-11448984D02*
X18355039Y-11448984D01*
X18355039Y-11448984D02*
X18335991Y-11439460D01*
X18335991Y-11439460D02*
X18326467Y-11429936D01*
X18564563Y-11248984D02*
X18583610Y-11248984D01*
X18583610Y-11248984D02*
X18602658Y-11258508D01*
X18602658Y-11258508D02*
X18612182Y-11268031D01*
X18612182Y-11268031D02*
X18621705Y-11287079D01*
X18621705Y-11287079D02*
X18631229Y-11325174D01*
X18631229Y-11325174D02*
X18631229Y-11372793D01*
X18631229Y-11372793D02*
X18621705Y-11410888D01*
X18621705Y-11410888D02*
X18612182Y-11429936D01*
X18612182Y-11429936D02*
X18602658Y-11439460D01*
X18602658Y-11439460D02*
X18583610Y-11448984D01*
X18583610Y-11448984D02*
X18564563Y-11448984D01*
X18564563Y-11448984D02*
X18545515Y-11439460D01*
X18545515Y-11439460D02*
X18535991Y-11429936D01*
X18535991Y-11429936D02*
X18526467Y-11410888D01*
X18526467Y-11410888D02*
X18516944Y-11372793D01*
X18516944Y-11372793D02*
X18516944Y-11325174D01*
X18516944Y-11325174D02*
X18526467Y-11287079D01*
X18526467Y-11287079D02*
X18535991Y-11268031D01*
X18535991Y-11268031D02*
X18545515Y-11258508D01*
X18545515Y-11258508D02*
X18564563Y-11248984D01*
X18755039Y-11248984D02*
X18774086Y-11248984D01*
X18774086Y-11248984D02*
X18793134Y-11258508D01*
X18793134Y-11258508D02*
X18802658Y-11268031D01*
X18802658Y-11268031D02*
X18812182Y-11287079D01*
X18812182Y-11287079D02*
X18821705Y-11325174D01*
X18821705Y-11325174D02*
X18821705Y-11372793D01*
X18821705Y-11372793D02*
X18812182Y-11410888D01*
X18812182Y-11410888D02*
X18802658Y-11429936D01*
X18802658Y-11429936D02*
X18793134Y-11439460D01*
X18793134Y-11439460D02*
X18774086Y-11448984D01*
X18774086Y-11448984D02*
X18755039Y-11448984D01*
X18755039Y-11448984D02*
X18735991Y-11439460D01*
X18735991Y-11439460D02*
X18726467Y-11429936D01*
X18726467Y-11429936D02*
X18716944Y-11410888D01*
X18716944Y-11410888D02*
X18707420Y-11372793D01*
X18707420Y-11372793D02*
X18707420Y-11325174D01*
X18707420Y-11325174D02*
X18716944Y-11287079D01*
X18716944Y-11287079D02*
X18726467Y-11268031D01*
X18726467Y-11268031D02*
X18735991Y-11258508D01*
X18735991Y-11258508D02*
X18755039Y-11248984D01*
X18907420Y-11448984D02*
X18907420Y-11315650D01*
X18907420Y-11334698D02*
X18916944Y-11325174D01*
X18916944Y-11325174D02*
X18935991Y-11315650D01*
X18935991Y-11315650D02*
X18964563Y-11315650D01*
X18964563Y-11315650D02*
X18983610Y-11325174D01*
X18983610Y-11325174D02*
X18993134Y-11344222D01*
X18993134Y-11344222D02*
X18993134Y-11448984D01*
X18993134Y-11344222D02*
X19002658Y-11325174D01*
X19002658Y-11325174D02*
X19021705Y-11315650D01*
X19021705Y-11315650D02*
X19050277Y-11315650D01*
X19050277Y-11315650D02*
X19069325Y-11325174D01*
X19069325Y-11325174D02*
X19078848Y-11344222D01*
X19078848Y-11344222D02*
X19078848Y-11448984D01*
X19174086Y-11448984D02*
X19174086Y-11315650D01*
X19174086Y-11334698D02*
X19183610Y-11325174D01*
X19183610Y-11325174D02*
X19202658Y-11315650D01*
X19202658Y-11315650D02*
X19231229Y-11315650D01*
X19231229Y-11315650D02*
X19250277Y-11325174D01*
X19250277Y-11325174D02*
X19259801Y-11344222D01*
X19259801Y-11344222D02*
X19259801Y-11448984D01*
X19259801Y-11344222D02*
X19269325Y-11325174D01*
X19269325Y-11325174D02*
X19288372Y-11315650D01*
X19288372Y-11315650D02*
X19316944Y-11315650D01*
X19316944Y-11315650D02*
X19335991Y-11325174D01*
X19335991Y-11325174D02*
X19345515Y-11344222D01*
X19345515Y-11344222D02*
X19345515Y-11448984D01*
X19735991Y-11239460D02*
X19564563Y-11496603D01*
X19993134Y-11248984D02*
X20012182Y-11248984D01*
X20012182Y-11248984D02*
X20031229Y-11258508D01*
X20031229Y-11258508D02*
X20040753Y-11268031D01*
X20040753Y-11268031D02*
X20050277Y-11287079D01*
X20050277Y-11287079D02*
X20059801Y-11325174D01*
X20059801Y-11325174D02*
X20059801Y-11372793D01*
X20059801Y-11372793D02*
X20050277Y-11410888D01*
X20050277Y-11410888D02*
X20040753Y-11429936D01*
X20040753Y-11429936D02*
X20031229Y-11439460D01*
X20031229Y-11439460D02*
X20012182Y-11448984D01*
X20012182Y-11448984D02*
X19993134Y-11448984D01*
X19993134Y-11448984D02*
X19974087Y-11439460D01*
X19974087Y-11439460D02*
X19964563Y-11429936D01*
X19964563Y-11429936D02*
X19955039Y-11410888D01*
X19955039Y-11410888D02*
X19945515Y-11372793D01*
X19945515Y-11372793D02*
X19945515Y-11325174D01*
X19945515Y-11325174D02*
X19955039Y-11287079D01*
X19955039Y-11287079D02*
X19964563Y-11268031D01*
X19964563Y-11268031D02*
X19974087Y-11258508D01*
X19974087Y-11258508D02*
X19993134Y-11248984D01*
X20145515Y-11429936D02*
X20155039Y-11439460D01*
X20155039Y-11439460D02*
X20145515Y-11448984D01*
X20145515Y-11448984D02*
X20135991Y-11439460D01*
X20135991Y-11439460D02*
X20145515Y-11429936D01*
X20145515Y-11429936D02*
X20145515Y-11448984D01*
X20278848Y-11248984D02*
X20297896Y-11248984D01*
X20297896Y-11248984D02*
X20316944Y-11258508D01*
X20316944Y-11258508D02*
X20326468Y-11268031D01*
X20326468Y-11268031D02*
X20335991Y-11287079D01*
X20335991Y-11287079D02*
X20345515Y-11325174D01*
X20345515Y-11325174D02*
X20345515Y-11372793D01*
X20345515Y-11372793D02*
X20335991Y-11410888D01*
X20335991Y-11410888D02*
X20326468Y-11429936D01*
X20326468Y-11429936D02*
X20316944Y-11439460D01*
X20316944Y-11439460D02*
X20297896Y-11448984D01*
X20297896Y-11448984D02*
X20278848Y-11448984D01*
X20278848Y-11448984D02*
X20259801Y-11439460D01*
X20259801Y-11439460D02*
X20250277Y-11429936D01*
X20250277Y-11429936D02*
X20240753Y-11410888D01*
X20240753Y-11410888D02*
X20231229Y-11372793D01*
X20231229Y-11372793D02*
X20231229Y-11325174D01*
X20231229Y-11325174D02*
X20240753Y-11287079D01*
X20240753Y-11287079D02*
X20250277Y-11268031D01*
X20250277Y-11268031D02*
X20259801Y-11258508D01*
X20259801Y-11258508D02*
X20278848Y-11248984D01*
X20535991Y-11448984D02*
X20421706Y-11448984D01*
X20478848Y-11448984D02*
X20478848Y-11248984D01*
X20478848Y-11248984D02*
X20459801Y-11277555D01*
X20459801Y-11277555D02*
X20440753Y-11296603D01*
X20440753Y-11296603D02*
X20421706Y-11306127D01*
X20631229Y-11448984D02*
X20669325Y-11448984D01*
X20669325Y-11448984D02*
X20688372Y-11439460D01*
X20688372Y-11439460D02*
X20697896Y-11429936D01*
X20697896Y-11429936D02*
X20716944Y-11401365D01*
X20716944Y-11401365D02*
X20726468Y-11363269D01*
X20726468Y-11363269D02*
X20726468Y-11287079D01*
X20726468Y-11287079D02*
X20716944Y-11268031D01*
X20716944Y-11268031D02*
X20707420Y-11258508D01*
X20707420Y-11258508D02*
X20688372Y-11248984D01*
X20688372Y-11248984D02*
X20650277Y-11248984D01*
X20650277Y-11248984D02*
X20631229Y-11258508D01*
X20631229Y-11258508D02*
X20621706Y-11268031D01*
X20621706Y-11268031D02*
X20612182Y-11287079D01*
X20612182Y-11287079D02*
X20612182Y-11334698D01*
X20612182Y-11334698D02*
X20621706Y-11353746D01*
X20621706Y-11353746D02*
X20631229Y-11363269D01*
X20631229Y-11363269D02*
X20650277Y-11372793D01*
X20650277Y-11372793D02*
X20688372Y-11372793D01*
X20688372Y-11372793D02*
X20707420Y-11363269D01*
X20707420Y-11363269D02*
X20716944Y-11353746D01*
X20716944Y-11353746D02*
X20726468Y-11334698D01*
X20793134Y-11248984D02*
X20926468Y-11248984D01*
X20926468Y-11248984D02*
X20840753Y-11448984D01*
X20993134Y-11248984D02*
X20993134Y-11287079D01*
X21069325Y-11248984D02*
X21069325Y-11287079D01*
X21364563Y-11525174D02*
X21355039Y-11515650D01*
X21355039Y-11515650D02*
X21335991Y-11487079D01*
X21335991Y-11487079D02*
X21326468Y-11468031D01*
X21326468Y-11468031D02*
X21316944Y-11439460D01*
X21316944Y-11439460D02*
X21307420Y-11391841D01*
X21307420Y-11391841D02*
X21307420Y-11353746D01*
X21307420Y-11353746D02*
X21316944Y-11306127D01*
X21316944Y-11306127D02*
X21326468Y-11277555D01*
X21326468Y-11277555D02*
X21335991Y-11258508D01*
X21335991Y-11258508D02*
X21355039Y-11229936D01*
X21355039Y-11229936D02*
X21364563Y-11220412D01*
X21526468Y-11248984D02*
X21488372Y-11248984D01*
X21488372Y-11248984D02*
X21469325Y-11258508D01*
X21469325Y-11258508D02*
X21459801Y-11268031D01*
X21459801Y-11268031D02*
X21440753Y-11296603D01*
X21440753Y-11296603D02*
X21431230Y-11334698D01*
X21431230Y-11334698D02*
X21431230Y-11410888D01*
X21431230Y-11410888D02*
X21440753Y-11429936D01*
X21440753Y-11429936D02*
X21450277Y-11439460D01*
X21450277Y-11439460D02*
X21469325Y-11448984D01*
X21469325Y-11448984D02*
X21507420Y-11448984D01*
X21507420Y-11448984D02*
X21526468Y-11439460D01*
X21526468Y-11439460D02*
X21535991Y-11429936D01*
X21535991Y-11429936D02*
X21545515Y-11410888D01*
X21545515Y-11410888D02*
X21545515Y-11363269D01*
X21545515Y-11363269D02*
X21535991Y-11344222D01*
X21535991Y-11344222D02*
X21526468Y-11334698D01*
X21526468Y-11334698D02*
X21507420Y-11325174D01*
X21507420Y-11325174D02*
X21469325Y-11325174D01*
X21469325Y-11325174D02*
X21450277Y-11334698D01*
X21450277Y-11334698D02*
X21440753Y-11344222D01*
X21440753Y-11344222D02*
X21431230Y-11363269D01*
X21783611Y-11448984D02*
X21783611Y-11248984D01*
X21869325Y-11448984D02*
X21869325Y-11344222D01*
X21869325Y-11344222D02*
X21859801Y-11325174D01*
X21859801Y-11325174D02*
X21840753Y-11315650D01*
X21840753Y-11315650D02*
X21812182Y-11315650D01*
X21812182Y-11315650D02*
X21793134Y-11325174D01*
X21793134Y-11325174D02*
X21783611Y-11334698D01*
X21993134Y-11448984D02*
X21974087Y-11439460D01*
X21974087Y-11439460D02*
X21964563Y-11429936D01*
X21964563Y-11429936D02*
X21955039Y-11410888D01*
X21955039Y-11410888D02*
X21955039Y-11353746D01*
X21955039Y-11353746D02*
X21964563Y-11334698D01*
X21964563Y-11334698D02*
X21974087Y-11325174D01*
X21974087Y-11325174D02*
X21993134Y-11315650D01*
X21993134Y-11315650D02*
X22021706Y-11315650D01*
X22021706Y-11315650D02*
X22040753Y-11325174D01*
X22040753Y-11325174D02*
X22050277Y-11334698D01*
X22050277Y-11334698D02*
X22059801Y-11353746D01*
X22059801Y-11353746D02*
X22059801Y-11410888D01*
X22059801Y-11410888D02*
X22050277Y-11429936D01*
X22050277Y-11429936D02*
X22040753Y-11439460D01*
X22040753Y-11439460D02*
X22021706Y-11448984D01*
X22021706Y-11448984D02*
X21993134Y-11448984D01*
X22174087Y-11448984D02*
X22155039Y-11439460D01*
X22155039Y-11439460D02*
X22145515Y-11420412D01*
X22145515Y-11420412D02*
X22145515Y-11248984D01*
X22326468Y-11439460D02*
X22307420Y-11448984D01*
X22307420Y-11448984D02*
X22269325Y-11448984D01*
X22269325Y-11448984D02*
X22250277Y-11439460D01*
X22250277Y-11439460D02*
X22240753Y-11420412D01*
X22240753Y-11420412D02*
X22240753Y-11344222D01*
X22240753Y-11344222D02*
X22250277Y-11325174D01*
X22250277Y-11325174D02*
X22269325Y-11315650D01*
X22269325Y-11315650D02*
X22307420Y-11315650D01*
X22307420Y-11315650D02*
X22326468Y-11325174D01*
X22326468Y-11325174D02*
X22335992Y-11344222D01*
X22335992Y-11344222D02*
X22335992Y-11363269D01*
X22335992Y-11363269D02*
X22240753Y-11382317D01*
X22412182Y-11439460D02*
X22431230Y-11448984D01*
X22431230Y-11448984D02*
X22469325Y-11448984D01*
X22469325Y-11448984D02*
X22488372Y-11439460D01*
X22488372Y-11439460D02*
X22497896Y-11420412D01*
X22497896Y-11420412D02*
X22497896Y-11410888D01*
X22497896Y-11410888D02*
X22488372Y-11391841D01*
X22488372Y-11391841D02*
X22469325Y-11382317D01*
X22469325Y-11382317D02*
X22440753Y-11382317D01*
X22440753Y-11382317D02*
X22421706Y-11372793D01*
X22421706Y-11372793D02*
X22412182Y-11353746D01*
X22412182Y-11353746D02*
X22412182Y-11344222D01*
X22412182Y-11344222D02*
X22421706Y-11325174D01*
X22421706Y-11325174D02*
X22440753Y-11315650D01*
X22440753Y-11315650D02*
X22469325Y-11315650D01*
X22469325Y-11315650D02*
X22488372Y-11325174D01*
X22564563Y-11525174D02*
X22574087Y-11515650D01*
X22574087Y-11515650D02*
X22593134Y-11487079D01*
X22593134Y-11487079D02*
X22602658Y-11468031D01*
X22602658Y-11468031D02*
X22612182Y-11439460D01*
X22612182Y-11439460D02*
X22621706Y-11391841D01*
X22621706Y-11391841D02*
X22621706Y-11353746D01*
X22621706Y-11353746D02*
X22612182Y-11306127D01*
X22612182Y-11306127D02*
X22602658Y-11277555D01*
X22602658Y-11277555D02*
X22593134Y-11258508D01*
X22593134Y-11258508D02*
X22574087Y-11229936D01*
X22574087Y-11229936D02*
X22564563Y-11220412D01*
M02*
