%TF.GenerationSoftware,KiCad,Pcbnew,10.0.3*%
%TF.CreationDate,2026-07-01T23:16:50+05:30*%
%TF.ProjectId,USB_C_POWER_BOARD,5553425f-435f-4504-9f57-45525f424f41,rev?*%
%TF.SameCoordinates,Original*%
%TF.FileFunction,Drillmap*%
%TF.FilePolarity,Positive*%
%FSLAX45Y45*%
G04 Gerber Fmt 4.5, Leading zero omitted, Abs format (unit mm)*
G04 Created by KiCad (PCBNEW 10.0.3) date 2026-07-01 23:16:50*
%MOMM*%
%LPD*%
G01*
G04 APERTURE LIST*
%ADD10C,0.050000*%
%ADD11C,0.200000*%
%ADD12C,0.115200*%
G04 APERTURE END LIST*
D10*
X17792000Y-8770000D02*
X17792000Y-8770000D01*
G75*
G02*
X17892000Y-8670000I100000J0D01*
G01*
X19503000Y-8670000D01*
G75*
G02*
X19603000Y-8770000I0J-100000D01*
G01*
X19603000Y-10351000D01*
G75*
G02*
X19503000Y-10451000I-100000J0D01*
G01*
X17892000Y-10451000D01*
G75*
G02*
X17792000Y-10351000I0J100000D01*
G01*
X17792000Y-8770000D01*
D11*
D12*
X17824400Y-8721400D02*
X17939600Y-8836600D01*
X17939600Y-8721400D02*
X17824400Y-8836600D01*
X17842400Y-10286400D02*
X17957600Y-10401600D01*
X17957600Y-10286400D02*
X17842400Y-10401600D01*
X19447400Y-10276400D02*
X19562600Y-10391600D01*
X19562600Y-10276400D02*
X19447400Y-10391600D01*
X19452400Y-8693400D02*
X19567600Y-8808600D01*
X19567600Y-8693400D02*
X19452400Y-8808600D01*
D11*
X18050277Y-10764984D02*
X18050277Y-10564984D01*
X18050277Y-10564984D02*
X18097896Y-10564984D01*
X18097896Y-10564984D02*
X18126467Y-10574508D01*
X18126467Y-10574508D02*
X18145515Y-10593555D01*
X18145515Y-10593555D02*
X18155039Y-10612603D01*
X18155039Y-10612603D02*
X18164563Y-10650698D01*
X18164563Y-10650698D02*
X18164563Y-10679270D01*
X18164563Y-10679270D02*
X18155039Y-10717365D01*
X18155039Y-10717365D02*
X18145515Y-10736412D01*
X18145515Y-10736412D02*
X18126467Y-10755460D01*
X18126467Y-10755460D02*
X18097896Y-10764984D01*
X18097896Y-10764984D02*
X18050277Y-10764984D01*
X18250277Y-10764984D02*
X18250277Y-10631650D01*
X18250277Y-10669746D02*
X18259801Y-10650698D01*
X18259801Y-10650698D02*
X18269324Y-10641174D01*
X18269324Y-10641174D02*
X18288372Y-10631650D01*
X18288372Y-10631650D02*
X18307420Y-10631650D01*
X18374086Y-10764984D02*
X18374086Y-10631650D01*
X18374086Y-10564984D02*
X18364563Y-10574508D01*
X18364563Y-10574508D02*
X18374086Y-10584031D01*
X18374086Y-10584031D02*
X18383610Y-10574508D01*
X18383610Y-10574508D02*
X18374086Y-10564984D01*
X18374086Y-10564984D02*
X18374086Y-10584031D01*
X18497896Y-10764984D02*
X18478848Y-10755460D01*
X18478848Y-10755460D02*
X18469324Y-10736412D01*
X18469324Y-10736412D02*
X18469324Y-10564984D01*
X18602658Y-10764984D02*
X18583610Y-10755460D01*
X18583610Y-10755460D02*
X18574086Y-10736412D01*
X18574086Y-10736412D02*
X18574086Y-10564984D01*
X18831229Y-10764984D02*
X18831229Y-10564984D01*
X18831229Y-10564984D02*
X18897896Y-10707841D01*
X18897896Y-10707841D02*
X18964563Y-10564984D01*
X18964563Y-10564984D02*
X18964563Y-10764984D01*
X19145515Y-10764984D02*
X19145515Y-10660222D01*
X19145515Y-10660222D02*
X19135991Y-10641174D01*
X19135991Y-10641174D02*
X19116944Y-10631650D01*
X19116944Y-10631650D02*
X19078848Y-10631650D01*
X19078848Y-10631650D02*
X19059801Y-10641174D01*
X19145515Y-10755460D02*
X19126467Y-10764984D01*
X19126467Y-10764984D02*
X19078848Y-10764984D01*
X19078848Y-10764984D02*
X19059801Y-10755460D01*
X19059801Y-10755460D02*
X19050277Y-10736412D01*
X19050277Y-10736412D02*
X19050277Y-10717365D01*
X19050277Y-10717365D02*
X19059801Y-10698317D01*
X19059801Y-10698317D02*
X19078848Y-10688793D01*
X19078848Y-10688793D02*
X19126467Y-10688793D01*
X19126467Y-10688793D02*
X19145515Y-10679270D01*
X19240753Y-10631650D02*
X19240753Y-10831650D01*
X19240753Y-10641174D02*
X19259801Y-10631650D01*
X19259801Y-10631650D02*
X19297896Y-10631650D01*
X19297896Y-10631650D02*
X19316944Y-10641174D01*
X19316944Y-10641174D02*
X19326467Y-10650698D01*
X19326467Y-10650698D02*
X19335991Y-10669746D01*
X19335991Y-10669746D02*
X19335991Y-10726889D01*
X19335991Y-10726889D02*
X19326467Y-10745936D01*
X19326467Y-10745936D02*
X19316944Y-10755460D01*
X19316944Y-10755460D02*
X19297896Y-10764984D01*
X19297896Y-10764984D02*
X19259801Y-10764984D01*
X19259801Y-10764984D02*
X19240753Y-10755460D01*
X19421705Y-10745936D02*
X19431229Y-10755460D01*
X19431229Y-10755460D02*
X19421705Y-10764984D01*
X19421705Y-10764984D02*
X19412182Y-10755460D01*
X19412182Y-10755460D02*
X19421705Y-10745936D01*
X19421705Y-10745936D02*
X19421705Y-10764984D01*
X19421705Y-10641174D02*
X19431229Y-10650698D01*
X19431229Y-10650698D02*
X19421705Y-10660222D01*
X19421705Y-10660222D02*
X19412182Y-10650698D01*
X19412182Y-10650698D02*
X19421705Y-10641174D01*
X19421705Y-10641174D02*
X19421705Y-10660222D01*
D12*
X17674300Y-11035900D02*
X17789500Y-11151100D01*
X17789500Y-11035900D02*
X17674300Y-11151100D01*
D11*
X18155039Y-11184984D02*
X18040753Y-11184984D01*
X18097896Y-11184984D02*
X18097896Y-10984984D01*
X18097896Y-10984984D02*
X18078848Y-11013555D01*
X18078848Y-11013555D02*
X18059801Y-11032603D01*
X18059801Y-11032603D02*
X18040753Y-11042127D01*
X18240753Y-11165936D02*
X18250277Y-11175460D01*
X18250277Y-11175460D02*
X18240753Y-11184984D01*
X18240753Y-11184984D02*
X18231229Y-11175460D01*
X18231229Y-11175460D02*
X18240753Y-11165936D01*
X18240753Y-11165936D02*
X18240753Y-11184984D01*
X18440753Y-11184984D02*
X18326467Y-11184984D01*
X18383610Y-11184984D02*
X18383610Y-10984984D01*
X18383610Y-10984984D02*
X18364563Y-11013555D01*
X18364563Y-11013555D02*
X18345515Y-11032603D01*
X18345515Y-11032603D02*
X18326467Y-11042127D01*
X18621705Y-10984984D02*
X18526467Y-10984984D01*
X18526467Y-10984984D02*
X18516944Y-11080222D01*
X18516944Y-11080222D02*
X18526467Y-11070698D01*
X18526467Y-11070698D02*
X18545515Y-11061174D01*
X18545515Y-11061174D02*
X18593134Y-11061174D01*
X18593134Y-11061174D02*
X18612182Y-11070698D01*
X18612182Y-11070698D02*
X18621705Y-11080222D01*
X18621705Y-11080222D02*
X18631229Y-11099270D01*
X18631229Y-11099270D02*
X18631229Y-11146889D01*
X18631229Y-11146889D02*
X18621705Y-11165936D01*
X18621705Y-11165936D02*
X18612182Y-11175460D01*
X18612182Y-11175460D02*
X18593134Y-11184984D01*
X18593134Y-11184984D02*
X18545515Y-11184984D01*
X18545515Y-11184984D02*
X18526467Y-11175460D01*
X18526467Y-11175460D02*
X18516944Y-11165936D01*
X18707420Y-11004031D02*
X18716944Y-10994508D01*
X18716944Y-10994508D02*
X18735991Y-10984984D01*
X18735991Y-10984984D02*
X18783610Y-10984984D01*
X18783610Y-10984984D02*
X18802658Y-10994508D01*
X18802658Y-10994508D02*
X18812182Y-11004031D01*
X18812182Y-11004031D02*
X18821705Y-11023079D01*
X18821705Y-11023079D02*
X18821705Y-11042127D01*
X18821705Y-11042127D02*
X18812182Y-11070698D01*
X18812182Y-11070698D02*
X18697896Y-11184984D01*
X18697896Y-11184984D02*
X18821705Y-11184984D01*
X18907420Y-11184984D02*
X18907420Y-11051650D01*
X18907420Y-11070698D02*
X18916944Y-11061174D01*
X18916944Y-11061174D02*
X18935991Y-11051650D01*
X18935991Y-11051650D02*
X18964563Y-11051650D01*
X18964563Y-11051650D02*
X18983610Y-11061174D01*
X18983610Y-11061174D02*
X18993134Y-11080222D01*
X18993134Y-11080222D02*
X18993134Y-11184984D01*
X18993134Y-11080222D02*
X19002658Y-11061174D01*
X19002658Y-11061174D02*
X19021705Y-11051650D01*
X19021705Y-11051650D02*
X19050277Y-11051650D01*
X19050277Y-11051650D02*
X19069325Y-11061174D01*
X19069325Y-11061174D02*
X19078848Y-11080222D01*
X19078848Y-11080222D02*
X19078848Y-11184984D01*
X19174086Y-11184984D02*
X19174086Y-11051650D01*
X19174086Y-11070698D02*
X19183610Y-11061174D01*
X19183610Y-11061174D02*
X19202658Y-11051650D01*
X19202658Y-11051650D02*
X19231229Y-11051650D01*
X19231229Y-11051650D02*
X19250277Y-11061174D01*
X19250277Y-11061174D02*
X19259801Y-11080222D01*
X19259801Y-11080222D02*
X19259801Y-11184984D01*
X19259801Y-11080222D02*
X19269325Y-11061174D01*
X19269325Y-11061174D02*
X19288372Y-11051650D01*
X19288372Y-11051650D02*
X19316944Y-11051650D01*
X19316944Y-11051650D02*
X19335991Y-11061174D01*
X19335991Y-11061174D02*
X19345515Y-11080222D01*
X19345515Y-11080222D02*
X19345515Y-11184984D01*
X19735991Y-10975460D02*
X19564563Y-11232603D01*
X19993134Y-10984984D02*
X20012182Y-10984984D01*
X20012182Y-10984984D02*
X20031229Y-10994508D01*
X20031229Y-10994508D02*
X20040753Y-11004031D01*
X20040753Y-11004031D02*
X20050277Y-11023079D01*
X20050277Y-11023079D02*
X20059801Y-11061174D01*
X20059801Y-11061174D02*
X20059801Y-11108793D01*
X20059801Y-11108793D02*
X20050277Y-11146889D01*
X20050277Y-11146889D02*
X20040753Y-11165936D01*
X20040753Y-11165936D02*
X20031229Y-11175460D01*
X20031229Y-11175460D02*
X20012182Y-11184984D01*
X20012182Y-11184984D02*
X19993134Y-11184984D01*
X19993134Y-11184984D02*
X19974087Y-11175460D01*
X19974087Y-11175460D02*
X19964563Y-11165936D01*
X19964563Y-11165936D02*
X19955039Y-11146889D01*
X19955039Y-11146889D02*
X19945515Y-11108793D01*
X19945515Y-11108793D02*
X19945515Y-11061174D01*
X19945515Y-11061174D02*
X19955039Y-11023079D01*
X19955039Y-11023079D02*
X19964563Y-11004031D01*
X19964563Y-11004031D02*
X19974087Y-10994508D01*
X19974087Y-10994508D02*
X19993134Y-10984984D01*
X20145515Y-11165936D02*
X20155039Y-11175460D01*
X20155039Y-11175460D02*
X20145515Y-11184984D01*
X20145515Y-11184984D02*
X20135991Y-11175460D01*
X20135991Y-11175460D02*
X20145515Y-11165936D01*
X20145515Y-11165936D02*
X20145515Y-11184984D01*
X20278848Y-10984984D02*
X20297896Y-10984984D01*
X20297896Y-10984984D02*
X20316944Y-10994508D01*
X20316944Y-10994508D02*
X20326468Y-11004031D01*
X20326468Y-11004031D02*
X20335991Y-11023079D01*
X20335991Y-11023079D02*
X20345515Y-11061174D01*
X20345515Y-11061174D02*
X20345515Y-11108793D01*
X20345515Y-11108793D02*
X20335991Y-11146889D01*
X20335991Y-11146889D02*
X20326468Y-11165936D01*
X20326468Y-11165936D02*
X20316944Y-11175460D01*
X20316944Y-11175460D02*
X20297896Y-11184984D01*
X20297896Y-11184984D02*
X20278848Y-11184984D01*
X20278848Y-11184984D02*
X20259801Y-11175460D01*
X20259801Y-11175460D02*
X20250277Y-11165936D01*
X20250277Y-11165936D02*
X20240753Y-11146889D01*
X20240753Y-11146889D02*
X20231229Y-11108793D01*
X20231229Y-11108793D02*
X20231229Y-11061174D01*
X20231229Y-11061174D02*
X20240753Y-11023079D01*
X20240753Y-11023079D02*
X20250277Y-11004031D01*
X20250277Y-11004031D02*
X20259801Y-10994508D01*
X20259801Y-10994508D02*
X20278848Y-10984984D01*
X20516944Y-11051650D02*
X20516944Y-11184984D01*
X20469325Y-10975460D02*
X20421706Y-11118317D01*
X20421706Y-11118317D02*
X20545515Y-11118317D01*
X20716944Y-10984984D02*
X20621706Y-10984984D01*
X20621706Y-10984984D02*
X20612182Y-11080222D01*
X20612182Y-11080222D02*
X20621706Y-11070698D01*
X20621706Y-11070698D02*
X20640753Y-11061174D01*
X20640753Y-11061174D02*
X20688372Y-11061174D01*
X20688372Y-11061174D02*
X20707420Y-11070698D01*
X20707420Y-11070698D02*
X20716944Y-11080222D01*
X20716944Y-11080222D02*
X20726468Y-11099270D01*
X20726468Y-11099270D02*
X20726468Y-11146889D01*
X20726468Y-11146889D02*
X20716944Y-11165936D01*
X20716944Y-11165936D02*
X20707420Y-11175460D01*
X20707420Y-11175460D02*
X20688372Y-11184984D01*
X20688372Y-11184984D02*
X20640753Y-11184984D01*
X20640753Y-11184984D02*
X20621706Y-11175460D01*
X20621706Y-11175460D02*
X20612182Y-11165936D01*
X20897896Y-11051650D02*
X20897896Y-11184984D01*
X20850277Y-10975460D02*
X20802658Y-11118317D01*
X20802658Y-11118317D02*
X20926468Y-11118317D01*
X20993134Y-10984984D02*
X20993134Y-11023079D01*
X21069325Y-10984984D02*
X21069325Y-11023079D01*
X21364563Y-11261174D02*
X21355039Y-11251650D01*
X21355039Y-11251650D02*
X21335991Y-11223079D01*
X21335991Y-11223079D02*
X21326468Y-11204031D01*
X21326468Y-11204031D02*
X21316944Y-11175460D01*
X21316944Y-11175460D02*
X21307420Y-11127841D01*
X21307420Y-11127841D02*
X21307420Y-11089746D01*
X21307420Y-11089746D02*
X21316944Y-11042127D01*
X21316944Y-11042127D02*
X21326468Y-11013555D01*
X21326468Y-11013555D02*
X21335991Y-10994508D01*
X21335991Y-10994508D02*
X21355039Y-10965936D01*
X21355039Y-10965936D02*
X21364563Y-10956412D01*
X21526468Y-11051650D02*
X21526468Y-11184984D01*
X21478849Y-10975460D02*
X21431230Y-11118317D01*
X21431230Y-11118317D02*
X21555039Y-11118317D01*
X21783611Y-11184984D02*
X21783611Y-10984984D01*
X21869325Y-11184984D02*
X21869325Y-11080222D01*
X21869325Y-11080222D02*
X21859801Y-11061174D01*
X21859801Y-11061174D02*
X21840753Y-11051650D01*
X21840753Y-11051650D02*
X21812182Y-11051650D01*
X21812182Y-11051650D02*
X21793134Y-11061174D01*
X21793134Y-11061174D02*
X21783611Y-11070698D01*
X21993134Y-11184984D02*
X21974087Y-11175460D01*
X21974087Y-11175460D02*
X21964563Y-11165936D01*
X21964563Y-11165936D02*
X21955039Y-11146889D01*
X21955039Y-11146889D02*
X21955039Y-11089746D01*
X21955039Y-11089746D02*
X21964563Y-11070698D01*
X21964563Y-11070698D02*
X21974087Y-11061174D01*
X21974087Y-11061174D02*
X21993134Y-11051650D01*
X21993134Y-11051650D02*
X22021706Y-11051650D01*
X22021706Y-11051650D02*
X22040753Y-11061174D01*
X22040753Y-11061174D02*
X22050277Y-11070698D01*
X22050277Y-11070698D02*
X22059801Y-11089746D01*
X22059801Y-11089746D02*
X22059801Y-11146889D01*
X22059801Y-11146889D02*
X22050277Y-11165936D01*
X22050277Y-11165936D02*
X22040753Y-11175460D01*
X22040753Y-11175460D02*
X22021706Y-11184984D01*
X22021706Y-11184984D02*
X21993134Y-11184984D01*
X22174087Y-11184984D02*
X22155039Y-11175460D01*
X22155039Y-11175460D02*
X22145515Y-11156412D01*
X22145515Y-11156412D02*
X22145515Y-10984984D01*
X22326468Y-11175460D02*
X22307420Y-11184984D01*
X22307420Y-11184984D02*
X22269325Y-11184984D01*
X22269325Y-11184984D02*
X22250277Y-11175460D01*
X22250277Y-11175460D02*
X22240753Y-11156412D01*
X22240753Y-11156412D02*
X22240753Y-11080222D01*
X22240753Y-11080222D02*
X22250277Y-11061174D01*
X22250277Y-11061174D02*
X22269325Y-11051650D01*
X22269325Y-11051650D02*
X22307420Y-11051650D01*
X22307420Y-11051650D02*
X22326468Y-11061174D01*
X22326468Y-11061174D02*
X22335992Y-11080222D01*
X22335992Y-11080222D02*
X22335992Y-11099270D01*
X22335992Y-11099270D02*
X22240753Y-11118317D01*
X22412182Y-11175460D02*
X22431230Y-11184984D01*
X22431230Y-11184984D02*
X22469325Y-11184984D01*
X22469325Y-11184984D02*
X22488372Y-11175460D01*
X22488372Y-11175460D02*
X22497896Y-11156412D01*
X22497896Y-11156412D02*
X22497896Y-11146889D01*
X22497896Y-11146889D02*
X22488372Y-11127841D01*
X22488372Y-11127841D02*
X22469325Y-11118317D01*
X22469325Y-11118317D02*
X22440753Y-11118317D01*
X22440753Y-11118317D02*
X22421706Y-11108793D01*
X22421706Y-11108793D02*
X22412182Y-11089746D01*
X22412182Y-11089746D02*
X22412182Y-11080222D01*
X22412182Y-11080222D02*
X22421706Y-11061174D01*
X22421706Y-11061174D02*
X22440753Y-11051650D01*
X22440753Y-11051650D02*
X22469325Y-11051650D01*
X22469325Y-11051650D02*
X22488372Y-11061174D01*
X22564563Y-11261174D02*
X22574087Y-11251650D01*
X22574087Y-11251650D02*
X22593134Y-11223079D01*
X22593134Y-11223079D02*
X22602658Y-11204031D01*
X22602658Y-11204031D02*
X22612182Y-11175460D01*
X22612182Y-11175460D02*
X22621706Y-11127841D01*
X22621706Y-11127841D02*
X22621706Y-11089746D01*
X22621706Y-11089746D02*
X22612182Y-11042127D01*
X22612182Y-11042127D02*
X22602658Y-11013555D01*
X22602658Y-11013555D02*
X22593134Y-10994508D01*
X22593134Y-10994508D02*
X22574087Y-10965936D01*
X22574087Y-10965936D02*
X22564563Y-10956412D01*
X22926468Y-11261174D02*
X22916944Y-11251650D01*
X22916944Y-11251650D02*
X22897896Y-11223079D01*
X22897896Y-11223079D02*
X22888372Y-11204031D01*
X22888372Y-11204031D02*
X22878849Y-11175460D01*
X22878849Y-11175460D02*
X22869325Y-11127841D01*
X22869325Y-11127841D02*
X22869325Y-11089746D01*
X22869325Y-11089746D02*
X22878849Y-11042127D01*
X22878849Y-11042127D02*
X22888372Y-11013555D01*
X22888372Y-11013555D02*
X22897896Y-10994508D01*
X22897896Y-10994508D02*
X22916944Y-10965936D01*
X22916944Y-10965936D02*
X22926468Y-10956412D01*
X23002658Y-11051650D02*
X23002658Y-11184984D01*
X23002658Y-11070698D02*
X23012182Y-11061174D01*
X23012182Y-11061174D02*
X23031230Y-11051650D01*
X23031230Y-11051650D02*
X23059801Y-11051650D01*
X23059801Y-11051650D02*
X23078849Y-11061174D01*
X23078849Y-11061174D02*
X23088372Y-11080222D01*
X23088372Y-11080222D02*
X23088372Y-11184984D01*
X23212182Y-11184984D02*
X23193134Y-11175460D01*
X23193134Y-11175460D02*
X23183611Y-11165936D01*
X23183611Y-11165936D02*
X23174087Y-11146889D01*
X23174087Y-11146889D02*
X23174087Y-11089746D01*
X23174087Y-11089746D02*
X23183611Y-11070698D01*
X23183611Y-11070698D02*
X23193134Y-11061174D01*
X23193134Y-11061174D02*
X23212182Y-11051650D01*
X23212182Y-11051650D02*
X23240753Y-11051650D01*
X23240753Y-11051650D02*
X23259801Y-11061174D01*
X23259801Y-11061174D02*
X23269325Y-11070698D01*
X23269325Y-11070698D02*
X23278849Y-11089746D01*
X23278849Y-11089746D02*
X23278849Y-11146889D01*
X23278849Y-11146889D02*
X23269325Y-11165936D01*
X23269325Y-11165936D02*
X23259801Y-11175460D01*
X23259801Y-11175460D02*
X23240753Y-11184984D01*
X23240753Y-11184984D02*
X23212182Y-11184984D01*
X23335992Y-11051650D02*
X23412182Y-11051650D01*
X23364563Y-10984984D02*
X23364563Y-11156412D01*
X23364563Y-11156412D02*
X23374087Y-11175460D01*
X23374087Y-11175460D02*
X23393134Y-11184984D01*
X23393134Y-11184984D02*
X23412182Y-11184984D01*
X23631230Y-11051650D02*
X23631230Y-11251650D01*
X23631230Y-11061174D02*
X23650277Y-11051650D01*
X23650277Y-11051650D02*
X23688373Y-11051650D01*
X23688373Y-11051650D02*
X23707420Y-11061174D01*
X23707420Y-11061174D02*
X23716944Y-11070698D01*
X23716944Y-11070698D02*
X23726468Y-11089746D01*
X23726468Y-11089746D02*
X23726468Y-11146889D01*
X23726468Y-11146889D02*
X23716944Y-11165936D01*
X23716944Y-11165936D02*
X23707420Y-11175460D01*
X23707420Y-11175460D02*
X23688373Y-11184984D01*
X23688373Y-11184984D02*
X23650277Y-11184984D01*
X23650277Y-11184984D02*
X23631230Y-11175460D01*
X23840753Y-11184984D02*
X23821706Y-11175460D01*
X23821706Y-11175460D02*
X23812182Y-11156412D01*
X23812182Y-11156412D02*
X23812182Y-10984984D01*
X24002658Y-11184984D02*
X24002658Y-11080222D01*
X24002658Y-11080222D02*
X23993134Y-11061174D01*
X23993134Y-11061174D02*
X23974087Y-11051650D01*
X23974087Y-11051650D02*
X23935992Y-11051650D01*
X23935992Y-11051650D02*
X23916944Y-11061174D01*
X24002658Y-11175460D02*
X23983611Y-11184984D01*
X23983611Y-11184984D02*
X23935992Y-11184984D01*
X23935992Y-11184984D02*
X23916944Y-11175460D01*
X23916944Y-11175460D02*
X23907420Y-11156412D01*
X23907420Y-11156412D02*
X23907420Y-11137365D01*
X23907420Y-11137365D02*
X23916944Y-11118317D01*
X23916944Y-11118317D02*
X23935992Y-11108793D01*
X23935992Y-11108793D02*
X23983611Y-11108793D01*
X23983611Y-11108793D02*
X24002658Y-11099270D01*
X24069325Y-11051650D02*
X24145515Y-11051650D01*
X24097896Y-10984984D02*
X24097896Y-11156412D01*
X24097896Y-11156412D02*
X24107420Y-11175460D01*
X24107420Y-11175460D02*
X24126468Y-11184984D01*
X24126468Y-11184984D02*
X24145515Y-11184984D01*
X24288373Y-11175460D02*
X24269325Y-11184984D01*
X24269325Y-11184984D02*
X24231230Y-11184984D01*
X24231230Y-11184984D02*
X24212182Y-11175460D01*
X24212182Y-11175460D02*
X24202658Y-11156412D01*
X24202658Y-11156412D02*
X24202658Y-11080222D01*
X24202658Y-11080222D02*
X24212182Y-11061174D01*
X24212182Y-11061174D02*
X24231230Y-11051650D01*
X24231230Y-11051650D02*
X24269325Y-11051650D01*
X24269325Y-11051650D02*
X24288373Y-11061174D01*
X24288373Y-11061174D02*
X24297896Y-11080222D01*
X24297896Y-11080222D02*
X24297896Y-11099270D01*
X24297896Y-11099270D02*
X24202658Y-11118317D01*
X24469325Y-11184984D02*
X24469325Y-10984984D01*
X24469325Y-11175460D02*
X24450277Y-11184984D01*
X24450277Y-11184984D02*
X24412182Y-11184984D01*
X24412182Y-11184984D02*
X24393134Y-11175460D01*
X24393134Y-11175460D02*
X24383611Y-11165936D01*
X24383611Y-11165936D02*
X24374087Y-11146889D01*
X24374087Y-11146889D02*
X24374087Y-11089746D01*
X24374087Y-11089746D02*
X24383611Y-11070698D01*
X24383611Y-11070698D02*
X24393134Y-11061174D01*
X24393134Y-11061174D02*
X24412182Y-11051650D01*
X24412182Y-11051650D02*
X24450277Y-11051650D01*
X24450277Y-11051650D02*
X24469325Y-11061174D01*
X24545515Y-11261174D02*
X24555039Y-11251650D01*
X24555039Y-11251650D02*
X24574087Y-11223079D01*
X24574087Y-11223079D02*
X24583611Y-11204031D01*
X24583611Y-11204031D02*
X24593134Y-11175460D01*
X24593134Y-11175460D02*
X24602658Y-11127841D01*
X24602658Y-11127841D02*
X24602658Y-11089746D01*
X24602658Y-11089746D02*
X24593134Y-11042127D01*
X24593134Y-11042127D02*
X24583611Y-11013555D01*
X24583611Y-11013555D02*
X24574087Y-10994508D01*
X24574087Y-10994508D02*
X24555039Y-10965936D01*
X24555039Y-10965936D02*
X24545515Y-10956412D01*
M02*
